<svg xmlns="http://www.w3.org/2000/svg" width="130.28" height="137.25" viewBox="0 0 130.28 137.25" enable-background="new 0 0 539.79 137.25"><g clip-rule="evenodd" fill-rule="evenodd"><path fill="#b2b2b2" d="M65 137.25l55.03-30.33 10.25-84.6-65.35-22.32-64.93 22.72 10.26 84.61z"/><path fill="#b52e31" d="M114.25 102.87l9.56-75.66-59.03-20.01v122.9z"/><path fill="#e13235" d="M64.78 7.19l-57.49 20.38 8.79 75.66 48.7 26.87z"/><path d="M83.64 80.18h-35.98l-8.05 20.02-14.98.271 40.15-88.811 41.55 88.811h-13.88l-8.81-20.291zm-5.18-11.86l-13.57-28.18-11.95 28.18h25.52z" fill="#f2f2f2"/><path fill="#b2b2b2" d="M64.81 68.35l-.03 11.81 18.86.02 8.81 20.3 14.33.26-42-89.08.11 28.48 13.56 28.21z"/></g></svg>