<svg xmlns="http://www.w3.org/2000/svg" xmlns:xlink="http://www.w3.org/1999/xlink" width="193.223" height="70.001" viewBox="0 0 193.22322 70.000999" enable-background="new 0 0 612 792"><path d="M192.497 32.076l-17.498-29.146c-.967-1.608-3.297-2.93-5.179-2.93h-.058l-167.681.004c-1.748 0-2.449 1.154-1.768 2.608l6.646 11.067.147.371 10.824 18.016c.968 1.617.968 4.252 0 5.86l-6.394 10.752-.219.26-10.893 18.132c-.968 1.608-.22 2.93 1.654 2.93l167.681-.004h.058c1.882 0 4.212-1.313 5.179-2.929l6.673-11.104 10.825-18.029c.972-1.615.972-4.25.003-5.858z" fill="#f0f0f0"/><g transform="translate(-273.445 -112.027)"><defs><path id="a" d="M465.942 144.103l-17.498-29.146c-.967-1.608-3.297-2.93-5.179-2.93h-.058l-167.681.004c-1.748 0-2.449 1.154-1.768 2.608l6.646 11.067.147.371 10.824 18.016c.968 1.617.968 4.252 0 5.86l-6.394 10.752-.219.26-10.893 18.132c-.968 1.608-.22 2.93 1.654 2.93l167.681-.004h.058c1.882 0 4.212-1.313 5.179-2.929l6.673-11.104 10.825-18.029c.972-1.615.972-4.25.003-5.858z"/></defs><clipPath id="b"><use xlink:href="#a" overflow="visible" width="612" height="792"/></clipPath><path d="M356.621 121.946h.281c.15-.135.253-.58.427-.847.236-.363.489-.377.561-.705.064-.266-.252-.985-.134-1.55.039-.224.275-.327.418-.56.265-.447.443-.773.703-1.268.28-.522.348-1.312.142-2.259.208-.167.396-.352.566-.563-.295-1.22-.006-2.403.563-3.383l.281-.563c.465-.651 1.596-.975 1.552-1.975-.417-.717-1.496-.588-2.259-.275-.126-.253-.339-.418-.422-.712.111-.407.667-.361.56-.983-.2-.403-.639-.528-.982-.844-.58-.54-.801-1.023-1.69-1.268-.265-.075-.771-.159-.983-.141-.284.014-.737.461-1.271.562-.383.072-.801-.081-.986 0-.559.247-.822 1.014-1.407 1.264-.478.211-.763-.204-1.129.288-.355-.584-1.237-.642-2.256-.568-.069-1.852-1.674-2.175-2.958-2.818h-2.25c-.702.759-2.229.688-3.386.991-.409.244-.354.955-.706 1.268-.281-.146-.218-.626-.699-.568-1.47.651-1.959 2.274-2.121 4.229.13.58 1.047.371 1.134.987-.233.755-1.023.951-1.837 1.126-.702-.048-.507-.999-1.406-.847-.924.739 1.082 1.751-.146 2.395-.681-.336-1.022-.979-.698-1.967-.491-.62-1.138-.229-2.116-.288-.424.813.318 1.275.421 1.975.672.085 1.245.26 1.411.844.441.072.497-.252.982-.133.549 1.129 2.853 1.723 4.229 1.12.175-.398.175-.872 0-1.263-.825-.616-2.311.288-2.531-.849.79-.463 1.177.561 2.251.28.339.407.813.465 1.409.28.412-.584.554-1.22 1.126-1.687.179-.146.578-.125.845-.28.233-.135.292-.432.566-.428.209-.4.257-.963.56-1.267 1.11-.115 1.578-.864 2.54-1.125.157.405.253.872.28 1.409-.689.667-2.208.51-3.1.982.358 1.169-.372 2.603.425 3.382 1.165.268 1.988.012 2.536.848.292.447.475 1.798.427 2.821-.024.403-.275.828-.288 1.268l.142 1.124c-.065.421-.548.743-.422 1.127-.056.576.601.435.706.846-.387.54-1.029 1.12-1.129 2.116-.074.751.312 2.421.564 3.237.205.691.262 1.115.704 1.411.142.089.39.027.563.141.367.234.537.761.988.566.673-.438.813-1.264 1.267-1.975.063-.104.057-.313.144-.419l.275-.147c.223-.401.134-.914.566-1.264.374-.308 1.408-.26 2.115-.711.545-.342.833-1.097 1.548-1.404.525-.23 1.391-.149 1.976-.423l.142-.28h.28l.136-.28zm36.354-14.657l.285.286c.849.376 1.437.022 2.112-.143.261.355.261.963.846.987.479-.179.81-.511.988-.987-.282-.316-.544-.811-1.131-.847-.431-.027-.561.144-.982.282-.46-.62-.981-1.182-1.976-1.27-.261-.532-.552-1.037-1.406-.983-.533.695-.305 1.552.139 2.11.101.129.952.456 1.125.565zm-58.758 1.272h.988c.074.439.25.787.423 1.127.391.103.43-.32.564-.568.577-1.063-.158-1.391-.849-1.83.039-.592-.408-.715-.565-1.122-1.454-.136-1.223 1.885-.561 2.393zm78.346-1.693c-.39-.943-2.413-.544-3.096-.143-.206 2.394 2.939 1.818 3.096.143zm1.971-.282c-.047-.284-.51-.338-.982-.141-.029.951 1.058.548.982.141zm-83.84 1.548c.371-.146.632-.401.703-.845.337-.133.695-.248.566-.844h-.704c.02.727-.927.486-1.268.844-.027.547.227.811.703.845zm50.872.709c.338.038.264-.079.563-.282.51-.354.485-.371.703-.848.118-.249.384-.336.28-.561-.407-.352-.703.607-1.268.561-.288-.181-.252-.682-.846-.561-.604.832-.055 1.612.568 1.691zm-54.67.845c-.107 1.043.438 1.438.84 1.971 1.3-.32 3.107.308 3.386-.845.105-.479-.214-.34-.428-.707-.142-.236.036-.724-.418-.699l-.85.56c-.422-.327-.596-.903-.846-1.406.119-.397.458-.58.424-1.128-.604-.428-1.039-.261-1.549 0-.557.284-1.557.6-1.557 1.128.211.501.832.588.998 1.126zm52.838-.426v-.842c-.404-.328-1.064-.022-1.412.141.128.612.736 1.054 1.412.701zm55.66.566c-.732-.421-1.35.125-1.836.139-.43.013-.928-.208-1.405-.279-.324-.048-.632.035-.988 0l-2.113-.426c-1.106-.103-1.59.362-2.393.426-.17.21-.181.578-.427.707-.549-.107-.872.396-1.267.561-.285.123-.648.162-.984.285-.315.104-.565.386-.991.274-.588-.288-.942-1.053-1.688-1.12-.704-.063-1.306.676-1.972.703-.229.008-.36-.079-.569-.143l-.698-.142c-.427-.187-.537-.628-1.13-.707-.428-.048-.813.225-1.267.288-.661.087-1.234-.177-1.831.137-.362.436.04 1.006 0 1.55-.514.24-1.054.455-1.692.568-.44.163-.399.816-.984.84-1.152-.769-1.247-2.603-3.669-2.107-.258.396-.258 1.049-.842 1.122-.635.034-.903-.392-1.554-.423-.752-.036-1.688.727-2.395 0 .189-2.153-1.366-3.598-3.238-2.819-.69-.202-1.012-.771-1.833-.842-.016.219-.359.109-.28.423-.501.461.129 1.152 0 1.552-.214.638-.746.711-1.548.846-.689 1.113-2.428 1.544-1.836 3.519-.284.274-.929.201-.988.705-.323.147-.287.649-.274 1.123-.638.266-.974.826-1.696.991-.549-.388-.761-1.115-1.687-1.129-.134.576-.461 1.979-.426 2.535.036.58.682 1.087.283 1.552-.859-.165-1.341-.309-2.253-.142-.084.248.168.826-.143.849-.651.56-1.546.194-2.252.427l-.288.276c-.182.096-.403.023-.558.141-.445.328-.505 1.055-1.133 1.127-.273-.336-.186-1.035-.846-.983-.577.276.375 1.579-.56 1.687-.613-.044-.534-.775-.847-1.131-1.098-.584-2.219-1.16-3.664-1.404-.39-.442-.679-.874-1.125-.987-1.322-.327-2.299.549-2.82.849-.399.227-.611.25-.846.427-.288.209-.529.394-.706.561-.479.442-.363.983-.561 1.545-.083.236-.422.505-.565.845-.159.388-.118.836-.281 1.13l-.284.14-.138.423c-.726.906-1.539 1.035-2.113 1.834.045 1.128.119 2.227.7 2.818.912.207.955-.461 1.69-.421.197.272.137.803.288 1.124-.209-.204-.925-.204-1.135 0-.319.599.083 1.079 0 1.834-.354.252-.78.439-1.264.561-.374.379-.564.943-1.129 1.126-.059-.699-1.327-2.03-1.832-3.097-.143-.313.024-.72-.139-.985-.273-.455-.924-.489-1.271-.286-.395.268-.261 1.051-.28 1.694-.968.296-1.828 1.295-1.411 2.531.818.166 1.028-.284 1.554-.42.201-.452.06-1.251.702-1.267.273.582-.494 1.702 0 2.536.475.09 1.312-.179 1.553.142-.27.482-.95.562-1.41.846.027.934 1.362 1.156 1.126 2.116-.321 1.343-1.986.216-3.098.842-.352.284-.078.791-.142 1.27-.102.771-.462 1.412-.143 1.969.482.544 1.171.3 1.269.987.111.757-.767.936-1.411 1.694-.296.352-.33 1.417-.417 1.548-.285.425-.999.636-1.409.987-.486.411-.803.974-1.126 1.554-.215.371-.52.888-.569 1.263-.079.597.201 1.536.142 2.257-.023.251-.248.495-.275.703-.257 1.522.646 1.778 1.263 2.541.229.284.258.445.424.701.328.499.546.67.986.985.419.3.589.489.982.711.956.517 1.146.003 2.256 0 .395-.006.818.182 1.13.134.305-.04.629-.309.986-.424 1.402-.452 1.645-.192 2.537.708.635-.024 1.256-.032 1.408.423.356.676-.321 1.418-.145 2.255.157.703.936 1.082 1.271 1.69.181.328.451.908.568 1.406.086.421.209 1.264.135 1.692-.052.326-.443.471-.562.701-.078.155-.109.465-.142.568-.358 1.16.043 1.973.422 2.819.182.411.462.822.564 1.268.13.569.06 1.07.139 1.547.139.787.872 1.365 1.13 2.118.249.729-.012 1.567.707 2.109 1.015-.146 2.137-.115 2.954-.28.17-.037.967-.407.991-.425.403-.386.774-.676 1.269-1.268.647-.769 1.247-1.492 1.405-2.533.507-.463.933-.381 1.13-.989.176-.552-.193-1.324 0-1.831.331-.868 1.974-1.148 2.392-1.83.413-.657.345-2.304.143-2.816-.166-.417-.379-.858-.419-1.273-.078-.703.146-1.152.276-1.41.316-.616.393-.781.846-1.264.332-.352.727-.814.983-.987.817-.543 1.784-1.375 2.121-2.108l.276-.143c.438-.776.876-1.738.99-2.682-.872-.924-3.028.967-3.525-.423.253-.441.952-.474 1.551-.702.634-.246 1.478-.562 1.975-.846l.276-.28c.55-.346 1.084-.403 1.553-.707l.281-.284c.43-.348.679-.612.987-1.126.26-.43.481-.779.428-1.127-.14-.862-1.139-.48-1.273-1.548 1.438.237 2.521.267 4.088.14.734.628 1.527 1.2 1.97 2.113.523.046.969.161 1.272.422.052 1.255.659 2.117.987 2.82l.137.564c.072.179.215.276.281.421.319.655.553 1.285.989 1.83l1.129-.14c-.016.674.173 1.143.706 1.27.206-.131.688-.707.276-.985.078-.642-.75-.377-.703-.985-.142-.498.139-1.402.139-1.552 0-.047-.166-.31-.139-.565.063-.511 1.261-1.544 1.69-1.971 1.023-1.023 1.521-1.719 2.963-1.688.773.769 1.465 1.629 1.828 2.811.427.201.508-.063 1.129 0 .462.715.773 1.569.987 2.539.544-.06.388-.837 1.125-.707 1.341.467.953 1.563 2.118 1.553.407-.006.837-.565.982-.705.376-.35.656-.588.708-.991.051-.427-.323-1.44-.426-1.543l-.144-.284c-.253-.249-.636-.32-.841-.564-.728-.851-.285-1.975.841-1.832.413.309-.458 1.277.428 1.27.619-.037.27-1.041.559-1.406 1.135-.484 2.152-.741 2.821-1.408.643-.647.635-.893.986-1.834.329-.872.474-1.136.277-1.973-.056-.256-.074-.701-.139-.85-.119-.313-.54-.612-.707-.845-.129-.185-.197-.443-.277-.563-.22-.315-.271-.165-.284-.56-.012-.566.979-1.027.562-1.409-.581-.407-1.395.278-1.686-.425 0-.705.446-.962.845-1.27.454.513.787.596 1.687.426.315.671.904 1.157 1.275 1.829.192.361.105.896.564 1.128.415-.051.712-.224.98-.423.181-1.537-.873-1.848-1.27-2.818.444-.549.479-1.492.846-2.114.341-.229.909-.225 1.271-.425.388-.511.735-1.304.988-2.109.217-.72.569-1.924.559-2.539-.002-.457-.527-.866-.136-1.27.166.729.379 1.408.986 1.69 1.078-1.484-.959-2.551-1.134-4.082-1.444-.401-3.214.023-3.521-1.131-.024-.117.225-1.204.283-1.41.017-.05.266-.205.281-.28.125-.469.066-1.381.285-1.692.422-.612 1.16-.469 1.827-.703.511-.175.743-.601 1.128-.563.614.028.951.495 1.555.144.524-.593-.315-2.555.706-2.962.704-.142.686.438 1.264.423.367-.067.475-.774.846-.423-.313.884-.099 1.877-.281 2.818-.082.439-.37.843-.422 1.266-.225 1.84.526 2.566 1.126 3.526.426.683.773 1.56 1.409 1.831.704-.548.402-1.859.564-2.676.044-.219.28-.359.28-.566.008-.214-.232-.6-.28-.985v-1.13c-.157-.455-.795-.767-.987-1.266-.244-.622.067-1.061-.28-1.552.633-.592 1.3-1.14 2.398-1.267.212-.912.452-1.796.841-2.535.255-.355.959-.257.99-.851-.173-1.064-1.306-1.195-1.552-2.107-.047-.179.142-.596.14-.847 0-.387-.187-.544-.14-.987.485-.625 1.312-.073 2.113-.417.337-.594-.226-.83-.285-1.41.078-.74-.127-1.189-.412-1.558zm-56.648 14.653c.466.146 1.153.071 1.551.283.01.76-.885.62-1.551.704-.202-.187-.202-.792 0-.987zm.142 13.806c.723-.111.573.652 1.121.712.649.027.649-.58.85-.991h.427c-.079 1.537 1.588 1.326 1.971 2.397-.488 1.184-1.553.292-2.397.141-.959-.173-1.686.32-2.815.424-.819-.766-.063-2.374.843-2.683zm-6.765-6.339c-.047-.947.293-1.347.564-2.249.02-.629-.574-.854-.564-1.412.012-.805.656-1.141 1.268-1.552.117-.584.106-1.301.565-1.551.229-.036.244.135.421.143.159 1.053-.723 1.061-.986 1.69-.035 1.357.323 2.311 1.271 2.682-.074 1.273-1.22 1.78-.705 3.238-.416.302-.792-.052-1.269 0-.695.078-1.433.835-1.975.142.162-.687 1.075-.62 1.41-1.131zm6.199 14.373c-.631-.028-1.121-.259-1.689-.419-.592-.173-1.3-.476-1.552-.426-.625.121-.628.705-1.125 1.129-.541-.063-1.028-.203-1.411-.564-.449-.436-1.509-.453-2.255-.983.083-.786-.064-1.347-.418-1.694-1.182.065-2.113-.024-3.104.141-1.044.179-2.031 1.012-3.102.563.485-.6 1.214-.407 1.689-.987.219-.254.128-.799.285-1.122.19-.378.6-.545.845-.847.301-.369.34-.784.707-.985.53-.271 1.573-.023 1.833-.566 1.047.551 1.604 1.59 2.815 1.977.254.261.379.65.703.843 1.557-1.25-1.094-1.855-1.409-2.956.023-.167.257-.123.423-.147.434.695 1.418.843 1.974 1.411-.003.331.24.419.139.85.494.221.826 1.941 1.552 1.969 1.19.044.558-1.041.703-1.835.371-.013.494-.211.707 0 .131.143.051.552.139.709l.288.566c.213.423.394.467.703.844 1.452-.225 2.2.483 3.381.142.237.818-.151 1.676-.565 2.252-.833-.177-1.441.179-2.256.135zm6.623 8.175c-.338-.004-.592-.084-.845-.28-.474-.367-.474-.87-.845-1.41-.154-.217-.478-.392-.561-.564l-.288-1.129c-.171-.385-.494-.621-.704-.985v-.427c-.095-.19-.727-.576-.56-1.264h.423c.288.336.402.716.702 1.131.235.327.672.6.845.983.096.214.02.494.143.703.613 1.024 1.945 1.889 1.69 3.242zm.842-15.919c.521-.473.864-1.114 1.979-.993.389.662-.481.686-.427 1.415-.015.546.604.818.846 1.268.163.292.163.699.284.982.257.622.909 1.19.561 1.83-.667.421-1.425-.119-1.829-.419.423-2.255-1.244-2.422-1.414-4.083zm3.811 11.123c-.71-.002-1.504-1.5-1.974-1.967-.162-.208-.162-.357 0-.564h.419c.473.983 1.603 1.31 2.682 1.687-.379.51-.668.854-1.127.844zm24.095-40.156c.083-.504-.42-.431-.845-.425-.193.636.568.688.845.425zm-43.403 5.076c.925-.062.528-1.442 1.269-1.695.185.38.304.825.986.708.53-.948-.876-1.063-.845-1.975.766-.221 1.572-.396 1.552-1.407-.383-.514-1.347-.44-2.255-.423-.382.274-.644.674-1.125.847-.341.185-.977.056-1.271.28-.455 1.103.501 1.781.983 2.394.02.645.344.979.706 1.271zm-21.417 48.891c-.39-.288-.876-.745-1.126-.845-.639-.244-1.465-.081-2.117-.277-.292-.094-.537-.432-.84-.563-.376-.167-.734-.056-.988-.143-.893-.318-.813-.868-1.128-1.552-.151-.328-.364-.783-.566-.987-.05-.056-.604-.449-.845-.561-.487-.223-.824-.079-1.409-.143-.605-.062-1.293-1.008-1.687-1.268-.348-.23-.645-.765-.845-.847-.685-.262-1.687.096-2.256 0-.632-.104-.833-.492-1.271-.563-1.106-.186-1.86.043-2.256.279-.402.251-.582.761-1.264.989-.237.078-.545-.089-.708.142l-.109.107-.209-.004-.104-.104c-1.01-.147-1.521-.428-1.69-1.268-.107-.538.459-1.146.143-1.69-.288-.608-1.592-.201-1.976-.707-.334-.749.64-1.302.428-2.396-1.461-.586-1.461.729-2.117 1.129-1.567.955-2.769-.568-2.536-2.392.04-.344.494-2.028.562-2.116.236-.313 1.46-.83 1.695-.848.378-.015.821.339 1.263.283.376-.137.647-.488 1.134-.563.758-.115 1.643.256 2.109.563.153.831.153 1.822 1.13 1.83.781-.93-.357-1.821 0-2.958.073-.242.338-.375.561-.564.465-.393.825-.665 1.271-.985.275-.2.604-.288.698-.425.32-.447.206-1.091.426-1.55.135-.28.479-.544.704-.848.584-.759.849-1.079 1.828-1.264.261-.807.621-1.623 1.552-1.69.471-.036.711.236 1.272.284.644-.439 1.686-.478 1.966-1.268-.719-.133-1.049-.144-1.401-.707-.114-.179.074-.656 0-.987-.099-.416-.767-.453-.285-.703.72.158 1.095.308 1.687.137.494-.133 1.193-.536 1.557-.282-.106.604-.659.757-.565 1.554.66.321 1.358.613 2.395.566.478-1.047-.56-1.532-.847-2.263.403-.896.321-1.644 0-2.108l-.279-.566c-.336-.383-.873-.477-1.125-.98-.261-.524-.182-1.111-.285-1.554-.104-.463-.174-.864-.424-1.41-.998-.157-.742.951-1.827.707-.399-.43-.21-.9-.146-1.552-.669-.874-1.531-2.176-3.097-1.692-.382.507-.11 1.097-.28 1.692-.126.445-.521.78-.563 1.271-.049.484.296 1.083.137 1.548-.197.6-1.184.721-1.548 1.406-.423.794.278 1.251-.564 1.831-.778-.152-.188-1.687-.564-2.248-.138-.263-.466-.161-.703-.284-.688-.362-1.247-1.17-1.832-1.554l-.281-.144c-.549-.319-.655-.54-.845-1.122-.492-1.504.653-2.199 1.548-2.96.698-.59 1.417-1.281 2.394-1.264.379.134.352.682.707.845.679-.207 1.117-.269 1.689-.288.124-.914-.841-1.354-.561-1.967.861-.415 1.43-.703 1.688-1.554.2-.64.473-1.277.849-1.69.964-.169 1.216.378 1.41.985-.008.608-.747.477-.569 1.275.624.181 1.02-.667 1.271 0-.095.983-.881 1.279-1.405 1.828-.558.012-1.24-.109-1.129.565-.06.757 1.181.225 1.552.557.302.319.326 1.051.698 1.412.266.253.964.578 1.271.561.261-.008 1.008-.449 1.126-.561.635-.572.075-1.452-.144-2.257.531-.014.432.608 1.132.426.615-.384.971-.592.986-1.129.007-.363-.441-.667-.704-.985-.322-.383-.665-.625-.705-.987.055-.556.312-.836.279-1.268-.075-1.074-1.374-1.622-1.832-2.682-.193-.455-.304-.888-.276-1.543-.427-.624-1.366-.396-2.121-.564-.284-.067-.502-.225-.703-.284-1.761-.564-2.819 1.416-2.674 3.242.257.409.747.6.702 1.268-.026.411-.409 1.015-.982.987-.193-.576-.874-1.099-.991-1.828-.028-.21.127-.609.143-.85.039-.604-.091-1.26.142-1.832.763-.507 2.249-.294 1.975-1.834-.563-.492-1.374-.446-1.975 0-.649-1.028-1.375-.52-1.975 0-.687.603-.798.716-.56 1.411.042.129.042.401.142.566.182.325.671.396.702.844.02.278-.083.399-.142.564-.271.797-.667.797-1.41 1.13-.269.485-.079 1.027-.703 1.264-.688.256-1.722-.207-1.69-.989 1.048.021 1.856-.544 1.972-1.266.044-.258-.195-.338-.281-.56-.265-.71-.047-1.681.138-2.118.229-.517.897-.789.847-1.55-.89-.552-1.398.636-2.252.561-.965-.077-1.283-.922-1.405-2.255-.906-.717-1.896-1.093-2.544-.417-.694.723-2.277 1.911-1.687 2.958.435.419 1.387-.144 1.687.141-.226.535.1 1.115 0 1.55-.032.157-.336.388-.418.564-.136.276.031.799-.426.707-.661-.044-.83-.582-1.128-.987-.986-.141-1.617-.636-2.112-1.271-1.379-.012-2.598.129-3.802.284-.297-.272-.537-.592-.708-.987-.506-.052-.628-.596-.987-.847-.289-.2-.853-.296-1.268-.56l-.143-.288-.423-.14-.137-.279-.423-.142c-.288-.262-.356-.626-.562-.846-.324-.336-.514-.441-.986-.561-.822-.213-1.514.125-1.976.28-.269.091-.633.043-.846.139-.541.24-.943.763-1.551.987-.494.181-1.063-.1-1.407.421-.146 1.039.435 2.098 0 2.958-.466.056-.689-.548-1.271-.56-.122-.004-.493.192-.706.279-.866.364-.818.912-.7 1.834.253.549 1.422.175 1.548.845-.247.965-1.337.425-1.969.707-.104.044-.341.363-.566.56-.252.223-.611.412-.706.564-.244.415-.465 1.343-.419 1.69.079.64.984.807.842 1.834.359.256.967.256.985.842-.444 1.29-2.096 1.381-2.814 2.396 1.564.016 2.212-.88 3.381-1.264l.988.276c.833-.432.431-1.884 1.263-2.112.777.599 2.194.134 2.818-.286.285.179.566.455.99.712.326.19.843.3 1.128.565.158.146.443.856.564.985.549.566.376 1.206.557 2.11l.144.563.141.704c.152.359.585.644.704.982.07.203-.056.593 0 .851.052.209.254.461.285.561.247.836-.008 1.299-.143 1.975.225.607.758.928.844 1.554.037.224-.108.448-.137.697-.096.842-.128.932-.28 1.414-.242.757-.577 1.26-.704 1.827-.193.843-.181 2.326 0 2.962.139.519.301 1.344.42 1.695.287.828.959.838 1.409 1.547.205.326.2.889.423 1.411.276.629.962 1.022.702 1.973.624.456.723 1.436 1.553 1.692.134-.656-.546-1.231-.147-1.692.529.145.514.705.707.98l.427.288.139.424c.276.396.743.615.846 1.124.055.263-.143.816 0 1.127.356.786 2.736 1.988 3.664 2.117.422.056 1.013-.127 1.406 0 .371.111.676.703 1.275.983.537.258 1.343.196 1.687.417.645.428.75 1.226 1.13 1.554.217.196.55.272.845.425.781.403 1.153.755 1.834 0h.137c.305.59.81 1.023.708 1.973-.06.485-.412.713-.708 1.131-.217.302-.697.709-.846 1.124-.217.624.084.828 0 1.408-.06.403-.339.703-.281.985.076.382.791 1.018 1.127 1.552.38.608.754 1.433.987 1.832.21.363.412.953.564 1.126.814.932 2.116.96 2.536 2.111.565 1.562-.06 4.567 0 6.063.024.521.177 1.051.142 1.548-.052.683-.39 1.295-.426 1.975-.008.256.111.6.146.987.036.45-.063.98 0 1.406.048.383.254.611.28.991.075 1.299-.253 2.682 0 3.802.108.483.493.978.702 1.411.25.494.444.971.708 1.406.968.332 1.951 1.718 3.238.844.11-.484-.244-.755-.423-.987-.258-.337-.517-.44-.706-.844-.124-.265-.313-.64-.276-1.124.034-.662.749-1.131.703-1.834-.04-.532-.612-.779-.569-1.268.463-.715.904-1.446.849-2.678.684-.067.589-.916.988-1.268.577-.217 1.291-.3 1.689-.703.167-.396.159-.976.144-1.554.335-.175.853-.181 1.125-.421.518-.409.518-1.051.846-1.548.173-.268.537-.459.705-.709.198-.286.463-.705.566-.981.272-.767-.087-1.122.276-1.692.134-.213.434-.227.568-.282l.139-.284.422-.139c.165-.092.257-.213.423-.284.253-.1.762-.012 1.125-.28.755-.55 1.161-2.117 1.272-3.381.023-.276-.104-.82 0-1.133.086-.262.572-.767.844-1.122.343-.467.735-.715.842-1.271.219-1.117-.322-1.18-.99-1.683zm36.638-43.679c-.162-.899-.782-1.12-.846-1.97-.024-.305.194-.608.28-.985.096-.428.016-.831.147-1.131l.418-.423.276-.703c.521-.672 1.544-1.02 1.552-1.828-.118-.304-.343-.502-.845-.431-.226.354-.419.552-.845.848-.729.513-1.07.491-1.549 1.268-.474.767-.419 1.357-.564 2.541-.091.751-.344 1.611-.28 1.827.202.676 1.352 1.288 2.256.987zm-25.499 4.933c-1.072-.264-2.489-.008-3.391 0-.161.809.061 1.854.846 2.114 1.287.431 3.372-.92 2.545-2.114zm66.781 9.298c-.02.308.117.446.426.427.023-.308-.116-.452-.426-.427zm.426 3.945c.85-.322 1.801-.545 1.973-1.548-.609-.28-1.147-.636-1.973-.703.039.808-.619 1.71 0 2.251zm-.561 3.241c-.257.316-.413.648-.71.847-.731.304-1.632.78-1.83 1.552-.142.556-.344 1.208.562 1.41.343-.271.257-.968.707-1.128.601-.136 1.075-.463 1.552-.706.549-.279 1.059-.504 1.55-.846-.088-1.605.422-3.801-1.126-3.947-.201.676.168 1.379 0 1.975-.108.359-.502.587-.705.843zm-57.496 0c-.21.215-.247.966.282.847.219-.215.253-.968-.282-.847zm2.262 2.114c.478.062.797-.044.699-.563-.41.014-.794.051-.699.563zm49.169 5.636c-.202.204-.202.928 0 1.128.601-.018.623-.691.426-1.128h-.426zm-89.053 2.819c-.138-.755-.916-.868-1.689-.981v.101c-.191-.079-.376-.164-.561-.225v-.162c.02-.232-.869-.232-.846 0 .292.079.398.352.846.286v-.117l.561.222v.171c.272.481.922 1.182 1.689.705zm.845.846c.554.403 1.501.272 1.832-.282-.164-.684-2.058-.936-1.832.282zm89.198-.282c-1.512-.05-.718 2.322-.282 2.821.406.012.923-.08 1.132.133-.546.482-.074 1.198 0 1.696.055.397-.052.761 0 .845.158.31.901.767 1.123.707.86-.219.618-1.652-.143-2.111.022-.35.022-.686-.139-.849-.454-.488-1.148-.784-1.406-1.552-.186-.532.213-1.216-.285-1.69zm-3.384 13.105c.051-.594-.604-.934-.983-.983l-1.125.144c-.201-.05-.554-.223-.708-.29-.256-.102-.639-.13-.702-.422.004-.463.237-.701.138-1.27-.498-.465-.766-.584-.984-1.124-.288-.699-.152-2.173-.421-2.674-.244-.457-.972-.624-1.271-.991-.159-.19-.193-.568-.28-.703-.172-.272-.261-.261-.424-.561-.036-.115-.117-.171-.28-.141-.651 1.376 1.358 1.863.704 3.242-.73-.163-.873-.918-1.832-.847-.302.731.606 1.154.986 1.687v.28l.279.137v.288l.281.144c.214.367.398 1.099.565 1.263.473.495 1.09 1.115 1.552 1.411.181.123.501.139.707.28.375.277.493.707.844.846.159.065.613-.071.983 0l.704.284c.457.052.814-.04 1.267 0zm1.13-7.187c-.966.962-1.885 1.971-3.238 2.535-.476 1.727 1.437 2.825 3.095 2.399.306-.732.984-1.551 1.13-2.263.072-.354-.169-.717-.144-1.12.029-.455.417-.659.282-1.131-.323-.188-.467-.563-1.125-.42zm1.69 3.384c-.52.395-.548 1.533-.138 2.113h1.405c.146-.443-.088-1.18 0-1.971-.227-.24-.828-.115-1.267-.142zm10.145.982c-.702-.246-1.418-.471-1.973-.417-.369.028-.703.348-1.123.276-.275-.246-.406-.634-.706-.842-.377 0-.811-.056-.987.143.135.596.287 1.068.703 1.408.16.129.489.052.702.136.225.095.383.337.568.427l.702.139c.46.276.399.878.565 1.415.688.16 1.09.642 1.828.558.514-.054.708-.628 1.27-.558.745.238.805 1.162 1.978.981.221-.688-.943-1.093-.849-2.112-.821-.604-1.536-1.142-2.678-1.554zm3.102 9.865c-.132-.234-.146-.651-.281-.844-.309-.436-.747-.62-.988-1.131-.434-.899-.39-1.919-.844-2.392-.324-.336-.31-.939-.846-.987-.813.457-.296 2.245-1.129 2.678-.877-.158-1.509-.558-1.829-1.27.123-.344.328-.609.276-1.124-.802-.403-1.64-.699-2.394-.423-.734.264-.774 1.275-1.552 1.406-.308-.111-.544-.3-.982-.28-.708.469-1.067 1.281-1.975 1.548-.451 2.177-3.271 1.158-4.226 2.678-.349.552-.436 1.583-.424 2.255.02.951.485 1.903.424 2.962-.031.484-.443.963-.281 1.547.201.082.343.219.423.424.714.246 1.33-.436 2.108-.566.32-.05.762.111 1.134 0 .422-.133.746-.555 1.122-.701.352-.135.875-.213 1.271-.284 1.73-.312 2.57 0 2.957 1.408.637.303 1.104.664 1.405 1.273l.432 1.404c.541.628 1.805.543 2.674.847.343-.403 1.063-.443 1.552-.703.443-.439.399-1.007.702-1.548l.284-.143c.08-.111.076-.324.137-.423l.426-.708c.314-.444.766-.705.983-1.124.079-.146.11-.465.142-.564.187-.55.507-1.264.568-1.829.173-1.604-.434-2.142-.99-3.104l-.279-.282zm-46.358-5.212l-.986 1.126c-.25.192-.653.141-.847.284-.674.48-.402 1.055-.564 1.971-.068.379-.382.675-.418 1.124-.068.674-.013 1.043.418 1.556 1.536.313 1.884-1.389 2.255-2.396.414-1.129 1.131-2.65.565-3.665h-.423zm55.938 15.079h-.28c.079 1.389-1.02 1.615-.707 3.238h-1.267c-.412.438-.753.991-1.265 1.408-.925.755-2.657 1.023-2.117 2.679 1.445.659 1.88-1.016 2.394-1.548.068-.067.356-.096.427-.141.229-.155.314-.338.418-.566l.285-.14c.382-.461.698-.87.986-1.271.537-.058 1.017-.411 1.268-.703.147-.165.162-.413.281-.56.45-.549.727-.524.707-.991-.037-.652-.806-.754-1.13-1.405zm-14.23 1.829c-.425.396-.608 1.483-.142 1.975 1.07.04 1.453-.616 1.41-1.688l-1.268-.287z" clip-path="url(#b)" fill="#e0e0e0"/></g><g transform="translate(-273.445 -112.027)"><radialGradient id="c" cx="271.853" cy="110.59" r="81.769" gradientUnits="userSpaceOnUse"><stop offset="0" stop-color="#FFCD4D"/><stop offset="1" stop-color="#F6C338"/></radialGradient><path d="M298.549 155.97l-15.687 26.058h7.922c1.876 0 4.205-1.315 5.172-2.93l6.674-11.105c.788-1.629.761-3.997-.14-5.499l-3.941-6.524z" fill="url(#c)"/><radialGradient id="d" cx="271.853" cy="110.593" r="81.766" gradientUnits="userSpaceOnUse"><stop offset="0" stop-color="#0DA960"/><stop offset="1" stop-color="#03914B"/></radialGradient><path d="M291.378 144.101c.968 1.608.968 4.245 0 5.86l-17.618 29.456c-.681 1.456.026 2.61 1.774 2.61h7.328l15.687-26.058-7.171-11.868z" fill="url(#d)"/><radialGradient id="e" cx="271.851" cy="110.593" r="81.766" gradientUnits="userSpaceOnUse"><stop offset="0" stop-color="#4387FD"/><stop offset="1" stop-color="#4683EA"/></radialGradient><path d="M275.534 112.027c-1.882 0-2.629 1.321-1.661 2.93l28.617 47.536c.9 1.502.928 3.87.14 5.499l6.957-11.579-26.721-44.386h-7.332z" fill="url(#e)"/><radialGradient id="f" cx="271.854" cy="110.593" r="81.761" gradientUnits="userSpaceOnUse"><stop offset="0" stop-color="#E04A3F"/><stop offset="1" stop-color="#CD372D"/></radialGradient><path d="M313.461 144.101l-17.505-29.144c-.967-1.608-3.296-2.93-5.172-2.93h-7.918l26.721 44.386 3.874-6.452c.969-1.615.969-4.252 0-5.86z" fill="url(#f)"/><linearGradient id="g" gradientUnits="userSpaceOnUse" x1="306.74" y1="156.046" x2="287.042" y2="156.046"><stop offset="0" stop-color="#231F20" stop-opacity=".2"/><stop offset="1" stop-color="#F1F2F2" stop-opacity=".25"/></linearGradient><path d="M302.49 162.493l-11.112-18.393c.968 1.608.968 4.245 0 5.86l-3.911 6.514 15.163 11.518c.788-1.629.761-3.997-.14-5.499z" fill="url(#g)"/><radialGradient id="h" cx="293.818" cy="147.027" r="28.635" gradientUnits="userSpaceOnUse"><stop offset="0" stop-color="#fff" stop-opacity=".1"/><stop offset=".09" stop-color="#fff" stop-opacity=".091"/><stop offset="1" stop-color="#fff" stop-opacity="0"/></radialGradient><path d="M313.461 144.101l-17.505-29.144c-.967-1.608-3.296-2.93-5.172-2.93h-15.25c-1.882 0-2.629 1.321-1.661 2.93l17.505 29.144c.968 1.608.968 4.245 0 5.86l-17.618 29.456c-.681 1.456.026 2.61 1.774 2.61h15.25c1.876 0 4.205-1.315 5.172-2.93l13.631-22.685 3.874-6.452c.969-1.614.969-4.251 0-5.859z" fill="url(#h)"/></g><g fill="#4d4d4d"><path d="M132.929 46.74M72.618 32.159h14.324v17.905c-3.892 1.335-8.162 1.996-12.833 1.996-5.112 0-9.065-1.482-11.862-4.448-2.798-2.966-4.188-7.205-4.188-12.706 0-5.354 1.524-9.52 4.587-12.505 3.059-2.988 7.341-4.46 12.853-4.46 2.092 0 4.059.188 5.909.588 1.864.39 3.483.884 4.862 1.484l-2.852 7.036c-2.388-1.18-5.017-1.768-7.879-1.768-2.608 0-4.638.861-6.068 2.557-1.44 1.704-2.146 4.132-2.146 7.3 0 3.104.641 5.47 1.946 7.099 1.282 1.631 3.144 2.432 5.585 2.432 1.336 0 2.565-.117 3.681-.382v-5.195h-5.92v-6.933zm38.095 2.462c0-3.051-.599-5.302-1.798-6.773-1.2-1.462-3.04-2.199-5.49-2.199h-2.609v18.598h2c2.733 0 4.731-.79 5.994-2.378 1.273-1.568 1.903-3.998 1.903-7.248m9.308-.315c0 5.532-1.514 9.804-4.574 12.802-3.04 2.997-7.33 4.491-12.853 4.491h-10.738v-33.197h11.485c5.321 0 9.435 1.369 12.336 4.093 2.903 2.714 4.344 6.658 4.344 11.811"/><path d="M137.44 32.159h14.337v17.905c-3.893 1.335-8.172 1.996-12.832 1.996-5.112 0-9.067-1.482-11.865-4.448-2.787-2.966-4.185-7.205-4.185-12.706 0-5.354 1.523-9.52 4.584-12.505 3.051-2.988 7.341-4.46 12.854-4.46 2.083 0 4.061.188 5.922.588 1.841.39 3.462.884 4.838 1.484l-2.838 7.036c-2.388-1.18-5.02-1.768-7.879-1.768-2.62 0-4.639.861-6.079 2.557-1.421 1.704-2.137 4.132-2.137 7.3 0 3.104.642 5.47 1.936 7.099 1.294 1.631 3.155 2.432 5.595 2.432 1.336 0 2.568-.117 3.684-.382v-5.195h-5.934v-6.933z"/></g><path d="M124.313 64.314v-8.59h1.137v8.59zm2.578-1.858l1.043-.164c.059.418.222.738.489.961.268.223.642.334 1.122.334.484 0 .844-.099 1.078-.296.234-.197.352-.429.352-.694 0-.238-.104-.426-.311-.563-.145-.094-.504-.213-1.078-.357-.773-.195-1.31-.364-1.608-.507-.299-.143-.525-.34-.68-.592-.154-.252-.231-.53-.231-.835 0-.277.064-.534.19-.771.127-.236.3-.433.519-.589.164-.121.388-.224.671-.308.283-.084.587-.126.911-.126.488 0 .917.07 1.286.211s.642.331.817.571c.176.24.297.562.363.964l-1.031.141c-.047-.32-.183-.57-.407-.75-.225-.18-.542-.27-.952-.27-.484 0-.83.08-1.037.24-.207.16-.311.348-.311.563 0 .137.043.26.129.369.086.113.221.207.404.281.105.039.416.129.932.27.746.199 1.267.362 1.562.489.295.127.526.312.694.554.168.242.252.543.252.902 0 .352-.103.683-.308.993-.205.311-.501.551-.888.721-.387.17-.824.255-1.313.255-.809 0-1.425-.168-1.849-.504-.424-.336-.694-.834-.812-1.494zm6.41 1.858v-6.223h.949v.943c.242-.441.466-.732.671-.873.205-.141.431-.211.677-.211.355 0 .717.113 1.084.34l-.363.979c-.258-.152-.516-.229-.773-.229-.23 0-.438.069-.621.208-.184.139-.314.331-.393.577-.117.375-.176.785-.176 1.23v3.258zm8.08-.768c-.391.332-.767.566-1.128.703-.361.137-.749.205-1.163.205-.684 0-1.209-.167-1.576-.501-.367-.334-.551-.761-.551-1.28 0-.305.069-.583.208-.835.139-.252.32-.454.545-.606.225-.152.478-.268.759-.346.207-.055.52-.107.938-.158.852-.102 1.479-.223 1.881-.363l.006-.275c0-.43-.1-.732-.299-.908-.27-.238-.67-.357-1.201-.357-.496 0-.862.087-1.099.261-.236.174-.411.481-.524.923l-1.031-.141c.094-.441.248-.798.463-1.069.215-.271.525-.48.932-.627.406-.146.877-.22 1.412-.22.531 0 .963.063 1.295.188.332.125.576.282.732.472.156.189.266.429.328.718.035.18.053.504.053.973v1.406c0 .98.022 1.601.067 1.86.045.26.134.509.267.747h-1.102c-.109-.219-.18-.475-.211-.768zm-.088-2.355c-.383.156-.957.289-1.723.398-.434.063-.74.133-.92.211-.18.078-.318.192-.416.343-.098.15-.146.317-.146.501 0 .281.106.516.319.703.213.188.524.281.935.281.406 0 .768-.089 1.084-.267.316-.178.549-.421.697-.729.113-.238.17-.59.17-1.055zm6.967 1.119l1.09.135c-.172.637-.49 1.131-.955 1.482-.465.352-1.059.527-1.781.527-.91 0-1.632-.28-2.165-.841-.533-.561-.8-1.347-.8-2.358 0-1.047.27-1.859.809-2.438.539-.578 1.238-.867 2.098-.867.832 0 1.512.283 2.039.85.527.566.791 1.363.791 2.391l-.006.281h-4.641c.039.684.232 1.207.58 1.57s.781.545 1.301.545c.387 0 .717-.102.99-.305s.49-.527.65-.973zm-3.463-1.705h3.475c-.047-.523-.18-.916-.398-1.178-.336-.406-.771-.609-1.307-.609-.484 0-.892.162-1.222.486-.33.324-.513.758-.548 1.301zm5.859 3.709v-8.59h1.055v8.59z" style="-inkscape-font-specification:Arial" font-size="12" font-family="Arial"/></svg>